<svg viewBox="0 0 683 334" fill="none" xmlns="http://www.w3.org/2000/svg">
    <path
        d="M341.347 333.562C280.294 330.348 263.971 328.201 219.316 317.512C166.859 304.955 105.205 283.095 73.7425 265.897C28.6211 241.232 3.12922 211.642 0.761885 181.183C-1.39804 153.392 13.6883 133.211 45.6358 121.147C58.0435 116.462 104.833 106.671 120.868 105.405C124.523 105.12 121.145 102.328 109.387 95.9356C81.0931 80.5513 67.3969 65.053 65.9521 46.7902C64.8338 32.4021 72.973 21.1948 91.2186 12.0793C104.562 5.41216 109.462 4.55738 151.695 1.53335C200.652 -1.9742 254.106 1.06536 341.587 12.3193C362.593 15.0215 404.595 20.305 434.925 24.0598C599.096 44.3841 613.451 46.4626 637.707 53.4286C739.019 82.52 661.062 157.373 481.429 203.488C460.474 208.867 439.861 213.542 435.623 213.877C420.141 215.08 426.904 218.906 454.352 224.417C504.065 234.397 537.296 249.331 542.974 264.242C551.032 285.403 526.446 303.061 467.271 318.614C444.714 324.542 360.313 334.562 341.347 333.562Z"
        fill="#EDF7D9" />
</svg>