<svg width="48" height="39" viewBox="0 0 48 39" fill="none" xmlns="http://www.w3.org/2000/svg">
<path fill-rule="evenodd" clip-rule="evenodd" d="M3.68804 16.7892C16.3045 11.2854 24.7174 7.657 28.9268 5.90392C40.9456 0.89851 43.443 0.0290173 45.0708 0.000306125C45.4288 -0.00600858 46.2293 0.0828308 46.7478 0.504114C47.1857 0.859838 47.3061 1.34037 47.3638 1.67763C47.4214 2.0149 47.4932 2.7832 47.4361 3.38353C46.7848 10.2356 43.9667 26.8636 42.5329 34.538C41.9263 37.7853 40.7317 38.8741 39.5753 38.9807C37.062 39.2122 35.1536 37.3176 32.7194 35.72C28.9104 33.2199 26.7585 31.6636 23.0612 29.224C18.7883 26.4046 21.5582 24.8551 23.9933 22.3226C24.6306 21.6599 35.704 11.5749 35.9183 10.66C35.9451 10.5456 35.97 10.1191 35.717 9.8939C35.4639 9.6687 35.0904 9.74571 34.8209 9.80696C34.4389 9.89378 28.3539 13.9209 16.566 21.8882C14.8388 23.0758 13.2743 23.6544 11.8726 23.624C10.3274 23.5906 7.35493 22.7492 5.14523 22.03C2.43493 21.1479 0.280845 20.6815 0.468417 19.1833C0.566117 18.403 1.63932 17.605 3.68804 16.7892Z" fill="#8FB53E"/>
</svg>
