<svg width="45" height="29" viewBox="0 0 45 29" fill="none" xmlns="http://www.w3.org/2000/svg">
<path d="M24.0535 28.9816C8.33711 28.9816 -0.0800513 18.1095 0.457031 0.0183105L8.32961 0.0183105C7.91984 13.2968 13.4406 18.9213 17.9794 20.081L18.9892 0.0183105L26.4021 0.0183105L25.8256 11.4703C30.3901 10.9774 35.4223 5.75879 37.3202 0.0183105L44.7331 0.0183105C43.9769 2.99549 42.6265 5.8144 40.7661 8.29872C38.9058 10.783 36.5757 12.8793 33.9214 14.4565C36.723 15.8976 39.159 17.9373 41.0685 20.4411C42.978 22.9448 44.3177 25.8557 44.9992 28.9816H36.8393C36.223 26.2666 34.8149 23.8361 32.7916 21.9949C30.7683 20.1537 28.2197 18.9837 25.4652 18.6314L24.9442 28.9816H24.0535V28.9816Z" fill="#8FB53E"/>
</svg>
