<svg width="47" height="47" viewBox="0 0 47 47" fill="none" xmlns="http://www.w3.org/2000/svg">
<path d="M0 47L3.31948 34.9308C1.27112 31.398 0.1948 27.3932 0.196768 23.2865C0.202671 10.4477 10.7002 0 23.5984 0C29.8576 0.00195833 35.7331 2.42833 40.1525 6.83067C44.5699 11.233 47.002 17.0845 47 23.3081C46.9941 36.1489 36.4965 46.5966 23.5984 46.5966C19.6827 46.5946 15.8241 45.6174 12.4062 43.7609L0 47ZM12.9808 39.5446C16.2786 41.4932 19.4269 42.6603 23.5905 42.6623C34.3104 42.6623 43.043 33.979 43.0489 23.3042C43.0528 12.6077 34.3616 3.93625 23.6063 3.93233C12.8785 3.93233 4.1518 12.6156 4.14787 23.2885C4.1459 27.6458 5.42883 30.9084 7.58344 34.3217L5.61773 41.4658L12.9808 39.5446ZM35.3868 28.8443C35.2411 28.6015 34.8515 28.4565 34.2652 28.1648C33.6808 27.873 30.806 26.4649 30.2688 26.271C29.7336 26.0772 29.344 25.9793 28.9524 26.5628C28.5628 27.1445 27.4413 28.4565 27.1009 28.8443C26.7604 29.232 26.4181 29.281 25.8337 28.9892C25.2493 28.6974 23.3642 28.0845 21.1309 26.1007C19.3935 24.5575 18.2187 22.652 17.8783 22.0685C17.5379 21.4868 17.8429 21.1715 18.1341 20.8817C18.3978 20.6213 18.7185 20.2022 19.0117 19.8614C19.3088 19.5246 19.4053 19.2818 19.602 18.892C19.7968 18.5043 19.7004 18.1635 19.5528 17.8718C19.4053 17.5819 18.2365 14.7169 17.7504 13.5517C17.2743 12.4178 16.7922 12.5705 16.4341 12.5529L15.3125 12.5333C14.9229 12.5333 14.2893 12.6782 13.7541 13.2618C13.2189 13.8454 11.7077 15.2515 11.7077 18.1165C11.7077 20.9816 13.8033 23.7487 14.0945 24.1365C14.3877 24.5242 18.2168 30.4031 24.0824 32.9235C25.4775 33.5228 26.5676 33.8811 27.4157 34.1494C28.8167 34.592 30.0917 34.5293 31.0992 34.3805C32.2227 34.214 34.5584 32.9725 35.0463 31.6134C35.5343 30.2523 35.5343 29.0871 35.3868 28.8443Z" fill="#8FB53E"/>
</svg>
