<svg width="32" height="32" viewBox="0 0 32 32" fill="none" xmlns="http://www.w3.org/2000/svg">
<rect width="32" height="32" fill="#1F4719"/>
<path d="M17.1284 6C18.935 6 20.504 6.30476 21.8352 6.91429C23.1664 7.50476 24.1933 8.36191 24.916 9.48571C25.6387 10.5905 26 11.8952 26 13.4C26 14.9048 25.6387 16.2095 24.916 17.3143C24.1933 18.419 23.1664 19.2762 21.8352 19.8857C20.504 20.4762 18.935 20.7714 17.1284 20.7714H13.6482V26H8V6H17.1284ZM16.7861 16.3143C17.9461 16.3143 18.8209 16.0667 19.4105 15.5714C20 15.0571 20.2948 14.3333 20.2948 13.4C20.2948 12.4667 20 11.7429 19.4105 11.2286C18.8209 10.7143 17.9461 10.4571 16.7861 10.4571H13.6482V16.3143H16.7861Z" fill="white"/>
</svg>
