<svg viewBox="0 0 197 29" fill="none" xmlns="http://www.w3.org/2000/svg">
<path d="M183.033 20.947H178.879V28.1006H171.264V1.17847H183.571C186.007 1.17847 188.122 1.58871 189.917 2.40919C191.712 3.20404 193.096 4.35785 194.071 5.87062C195.045 7.35775 195.532 9.1141 195.532 11.1397C195.532 13.0883 195.071 14.7934 194.148 16.2549C193.25 17.6907 191.955 18.8189 190.263 19.6394L196.071 28.1006H187.917L183.033 20.947ZM187.84 11.1397C187.84 9.8833 187.443 8.90898 186.648 8.21669C185.853 7.52441 184.673 7.17827 183.109 7.17827H178.879V15.0626H183.109C184.673 15.0626 185.853 14.7293 186.648 14.0626C187.443 13.3704 187.84 12.396 187.84 11.1397Z" fill="white"/>
<path d="M152.314 28.6392C149.468 28.6392 146.904 28.0367 144.622 26.8316C142.366 25.6265 140.584 23.9599 139.276 21.8317C137.994 19.7036 137.353 17.3062 137.353 14.6397C137.353 11.9731 137.994 9.57573 139.276 7.4476C140.584 5.31947 142.366 3.65286 144.622 2.44777C146.904 1.24268 149.468 0.640137 152.314 0.640137C155.16 0.640137 157.712 1.24268 159.968 2.44777C162.25 3.65286 164.032 5.31947 165.314 7.4476C166.622 9.57573 167.275 11.9731 167.275 14.6397C167.275 17.3062 166.622 19.7036 165.314 21.8317C164.032 23.9599 162.25 25.6265 159.968 26.8316C157.712 28.0367 155.16 28.6392 152.314 28.6392ZM152.314 22.3317C153.673 22.3317 154.904 22.0112 156.006 21.3702C157.109 20.7292 157.981 19.8318 158.622 18.678C159.263 17.4985 159.583 16.1524 159.583 14.6397C159.583 13.1269 159.263 11.7936 158.622 10.6398C157.981 9.46035 157.109 8.55013 156.006 7.90912C154.904 7.26812 153.673 6.94762 152.314 6.94762C150.955 6.94762 149.725 7.26812 148.622 7.90912C147.52 8.55013 146.648 9.46035 146.007 10.6398C145.366 11.7936 145.045 13.1269 145.045 14.6397C145.045 16.1524 145.366 17.4985 146.007 18.678C146.648 19.8318 147.52 20.7292 148.622 21.3702C149.725 22.0112 150.955 22.3317 152.314 22.3317Z" fill="white"/>
<path d="M134.415 9.63983C132.159 8.38347 129.864 7.55016 127.531 7.13992V28.1008H119.916V7.13992C117.531 7.55016 115.236 8.38347 113.031 9.63983L110.493 4.10156C112.365 2.97339 114.429 2.11445 116.685 1.52472C118.967 0.934999 121.313 0.640137 123.723 0.640137C126.133 0.640137 128.467 0.934999 130.723 1.52472C133.005 2.11445 135.082 2.97339 136.954 4.10156L134.415 9.63983Z" fill="white"/>
<path d="M98.5086 28.6392C96.3292 28.6392 94.2139 28.37 92.1627 27.8315C90.1115 27.2931 88.4448 26.5752 87.1628 25.6778L89.6628 20.0626C90.8678 20.8574 92.2652 21.4984 93.8549 21.9856C95.4446 22.4727 97.0087 22.7163 98.5471 22.7163C101.47 22.7163 102.932 21.9856 102.932 20.5241C102.932 19.7549 102.508 19.1908 101.662 18.8318C100.842 18.4472 99.5086 18.0498 97.6625 17.6396C95.6369 17.2037 93.9447 16.7422 92.5857 16.255C91.2268 15.7422 90.0602 14.9345 89.0858 13.832C88.1115 12.7295 87.6244 11.2423 87.6244 9.37061C87.6244 7.72964 88.0731 6.25533 88.9705 4.94768C89.8679 3.6144 91.2012 2.56315 92.9703 1.79395C94.7651 1.02474 96.9574 0.640137 99.547 0.640137C101.316 0.640137 103.06 0.845258 104.778 1.2555C106.496 1.6401 108.008 2.21701 109.316 2.98621L106.97 8.63987C104.406 7.2553 101.919 6.56302 99.5086 6.56302C97.9958 6.56302 96.8933 6.79378 96.201 7.2553C95.5087 7.69118 95.1626 8.26809 95.1626 8.98601C95.1626 9.70393 95.5728 10.2424 96.3933 10.6013C97.2138 10.9603 98.5342 11.3321 100.355 11.7167C102.406 12.1526 104.098 12.6269 105.431 13.1397C106.79 13.6269 107.957 14.4217 108.931 15.5242C109.931 16.6011 110.431 18.0754 110.431 19.9472C110.431 21.5625 109.983 23.024 109.085 24.3316C108.188 25.6393 106.842 26.6905 105.047 27.4854C103.252 28.2546 101.073 28.6392 98.5086 28.6392Z" fill="white"/>
<path d="M70.098 28.6392C67.2519 28.6392 64.6879 28.0367 62.4059 26.8316C60.1496 25.6265 58.3676 23.9599 57.06 21.8317C55.778 19.7036 55.137 17.3062 55.137 14.6397C55.137 11.9731 55.778 9.57573 57.06 7.4476C58.3676 5.31947 60.1496 3.65286 62.4059 2.44777C64.6879 1.24268 67.2519 0.640137 70.098 0.640137C72.9441 0.640137 75.4952 1.24268 77.7516 2.44777C80.0336 3.65286 81.8155 5.31947 83.0976 7.4476C84.4052 9.57573 85.059 11.9731 85.059 14.6397C85.059 17.3062 84.4052 19.7036 83.0976 21.8317C81.8155 23.9599 80.0336 25.6265 77.7516 26.8316C75.4952 28.0367 72.9441 28.6392 70.098 28.6392ZM70.098 22.3317C71.4569 22.3317 72.6877 22.0112 73.7902 21.3702C74.8927 20.7292 75.7645 19.8318 76.4055 18.678C77.0465 17.4985 77.367 16.1524 77.367 14.6397C77.367 13.1269 77.0465 11.7936 76.4055 10.6398C75.7645 9.46035 74.8927 8.55013 73.7902 7.90912C72.6877 7.26812 71.4569 6.94762 70.098 6.94762C68.7391 6.94762 67.5083 7.26812 66.4058 7.90912C65.3033 8.55013 64.4315 9.46035 63.7905 10.6398C63.1495 11.7936 62.829 13.1269 62.829 14.6397C62.829 16.1524 63.1495 17.4985 63.7905 18.678C64.4315 19.8318 65.3033 20.7292 66.4058 21.3702C67.5083 22.0112 68.7391 22.3317 70.098 22.3317Z" fill="white"/>
<path d="M39.8208 20.947H35.6671V28.1006H28.052V1.17847H40.3593C42.7951 1.17847 44.9104 1.58871 46.7052 2.40919C48.5 3.20404 49.8846 4.35785 50.8589 5.87062C51.8333 7.35775 52.3204 9.1141 52.3204 11.1397C52.3204 13.0883 51.8589 14.7934 50.9358 16.2549C50.0384 17.6907 48.7436 18.8189 47.0514 19.6394L52.8589 28.1006H44.7053L39.8208 20.947ZM44.6284 11.1397C44.6284 9.8833 44.2309 8.90898 43.4361 8.21669C42.6413 7.52441 41.4618 7.17827 39.8978 7.17827H35.6671V15.0626H39.8978C41.4618 15.0626 42.6413 14.7293 43.4361 14.0626C44.2309 13.3704 44.6284 12.396 44.6284 11.1397Z" fill="white"/>
<path d="M12.3778 1.17847C14.8136 1.17847 16.929 1.58871 18.7238 2.40919C20.5186 3.20404 21.9032 4.35785 22.8775 5.87062C23.8518 7.35775 24.339 9.1141 24.339 11.1397C24.339 13.1652 23.8518 14.9216 22.8775 16.4087C21.9032 17.8959 20.5186 19.0497 18.7238 19.8701C16.929 20.665 14.8136 21.0624 12.3778 21.0624H7.68568V28.1006H0.0705566V1.17847H12.3778ZM11.9163 15.0626C13.4804 15.0626 14.6598 14.7293 15.4547 14.0626C16.2495 13.3704 16.6469 12.396 16.6469 11.1397C16.6469 9.8833 16.2495 8.90898 15.4547 8.21669C14.6598 7.52441 13.4804 7.17827 11.9163 7.17827H7.68568V15.0626H11.9163Z" fill="white"/>
</svg>
