<svg width="55" height="54" viewBox="0 0 55 54" fill="none" xmlns="http://www.w3.org/2000/svg">
<path d="M35.898 19.3148C35.7801 19.1947 35.6337 19.1058 35.4729 19.0557C30.3261 17.6846 24.9107 17.6846 19.7636 19.0557C19.6028 19.1058 19.4563 19.1947 19.3384 19.3148C16.8681 21.8046 16.3706 24.105 16.3706 27.0075C16.3706 34.1993 21.6269 38.2578 27.6182 38.2578C33.6095 38.2578 38.8658 34.1995 38.8658 27.0075C38.8658 24.1049 38.3684 21.8046 35.898 19.3148Z" fill="#353F38"/>
<path d="M14.2312 24.8838C14.5106 22.1563 15.756 19.6186 17.7421 17.7289C18.1228 17.3458 18.5924 17.0626 19.1087 16.9048C21.8782 16.1307 24.7432 15.751 27.6187 15.7777C30.4868 15.7506 33.3443 16.128 36.1069 16.8983C36.6353 17.0573 37.1154 17.3458 37.504 17.7379C39.4863 19.6258 40.7283 22.1604 41.0063 24.8841C44.0201 23.6783 45.6145 22.0989 45.6145 20.2578C45.6145 15.8258 36.5619 13.5078 27.6185 13.5078C18.6758 13.5078 9.62256 15.8258 9.62256 20.2578C9.62256 22.0989 11.217 23.6783 14.2308 24.8837L14.2312 24.8838Z" fill="#353F38"/>
<path d="M38.4913 12.4491L37.7242 7.67849C37.078 4.18261 34.6878 2.25781 30.9932 2.25781H24.2448C20.5502 2.25781 18.16 4.18261 17.5119 7.70482L16.7485 12.4486C20.3133 11.6301 23.9616 11.2304 27.6192 11.2579C31.2773 11.2304 34.9261 11.63 38.4918 12.449L38.4913 12.4491Z" fill="#353F38"/>
<path d="M18.622 37.2954V45.0074H36.617V37.2954C34.0781 39.3724 30.8993 40.5073 27.6193 40.5073C24.3393 40.5073 21.1605 39.3724 18.6216 37.2954H18.622Z" fill="#353F38"/>
<path d="M38.8667 46.1322C38.8667 46.4309 38.7485 46.7171 38.5372 46.9281C38.3263 47.139 38.0401 47.2573 37.7419 47.2573H17.4967C17.1985 47.2573 16.9123 47.139 16.7014 46.9281C16.4901 46.7171 16.3719 46.4309 16.3719 46.1322V36.3274C15.6086 36.4596 14.8561 36.6517 14.1226 36.9011V51.7577H41.1161V36.9011C40.3825 36.6513 39.6301 36.4596 38.8667 36.3274V46.1322Z" fill="#353F38"/>
<path d="M7.37436 46.1326V50.6327C7.37436 50.931 7.49261 51.2173 7.7035 51.4282C7.91439 51.6395 8.20058 51.7578 8.49922 51.7578H11.8734V37.96C10.4578 38.7913 9.29264 39.9895 8.50115 41.4276C7.7092 42.8661 7.32018 44.4914 7.37436 46.1322V46.1326Z" fill="#353F38"/>
<path d="M43.365 37.96V51.7578H46.7392C47.0378 51.7578 47.324 51.6395 47.5349 51.4282C47.7458 51.2173 47.864 50.931 47.864 50.6327V46.1326C47.9183 44.4918 47.5292 42.8665 46.7372 41.428C45.9457 39.9899 44.7805 38.7917 43.365 37.9603V37.96Z" fill="#353F38"/>
</svg>
