<svg width="55" height="54" viewBox="0 0 55 54" fill="none" xmlns="http://www.w3.org/2000/svg">
<path fill-rule="evenodd" clip-rule="evenodd" d="M25.7683 26.3202L23.6436 24.1955C23.0029 23.5548 21.961 23.5548 21.3202 24.1955C20.6795 24.8362 20.6795 25.8782 21.3202 26.5189L25.7679 30.9666V41.1912L23.6433 39.0666C23.0025 38.424 21.9606 38.424 21.3199 39.0666C20.6791 39.7073 20.6791 40.7493 21.3199 41.39L25.7675 45.8376V50.0029C25.7675 50.9099 26.5036 51.646 27.4106 51.646C28.3176 51.646 29.0537 50.9099 29.0537 50.0029V45.8461L33.4423 41.4575C34.083 40.8168 34.083 39.7748 33.4423 39.1341C32.8016 38.4934 31.7596 38.4934 31.1189 39.1341L29.0537 41.1993V30.9747L33.4423 26.5861C34.083 25.9453 34.083 24.9034 33.4423 24.2627C32.8016 23.6219 31.7596 23.6219 31.1189 24.2627L29.0537 26.3279V25.3567C29.0537 24.4497 28.3176 23.7136 27.4106 23.7136C26.5036 23.7136 25.7675 24.4497 25.7675 25.3567V26.3194L25.7683 26.3202ZM7.28039 27.6742C6.82378 27.7711 6.42915 28.0571 6.19587 28.4613C5.96261 28.8655 5.91164 29.3503 6.05613 29.7937C6.05613 29.7937 7.24591 33.415 8.80824 36.0799C9.61181 37.4519 10.5533 38.5658 11.447 39.0819C13.1657 40.0743 15.7931 40.495 17.9797 40.0398C19.6672 39.6881 21.0817 38.824 21.8475 37.4978C22.6133 36.1701 22.6558 34.5139 22.1152 32.8759C21.4169 30.7546 19.7376 28.6909 18.0189 27.6987C17.1251 27.1827 15.6889 26.923 14.1001 26.9135C11.0095 26.8937 7.27986 27.6742 7.27986 27.6742L7.28039 27.6742ZM48.6897 29.7937C48.836 29.3499 48.785 28.8655 48.5518 28.4613C48.3185 28.0572 47.9242 27.7711 47.4672 27.6743C47.4672 27.6743 43.7373 26.8938 40.647 26.9136C39.0564 26.9235 37.6219 27.1832 36.7282 27.6988C35.0095 28.6912 33.3302 30.755 32.6319 32.876C32.0913 34.5143 32.1342 36.1702 32.8996 37.4979C33.6654 38.8238 35.0781 39.6882 36.7674 40.0399C38.9544 40.4951 41.5814 40.0744 43.3001 39.082C44.1939 38.5659 45.1353 37.4521 45.9389 36.08C47.5013 33.4148 48.6896 29.7938 48.6896 29.7938L48.6897 29.7937ZM44.9139 30.561C44.5886 31.3891 44.1598 32.4061 43.6669 33.3821C43.0508 34.5997 42.4016 35.8071 41.6575 36.2362C40.5485 36.8769 38.8477 37.1167 37.438 36.8226C36.7265 36.6748 36.0677 36.4133 35.7458 35.8547C35.422 35.2961 35.5257 34.5945 35.7524 33.9043C36.2042 32.5356 37.2623 31.1852 38.3715 30.5441C39.1156 30.1135 40.4844 30.1546 41.8483 30.2301C42.9409 30.291 44.0353 30.4275 44.9144 30.5602L44.9139 30.561ZM9.83467 30.561C10.7138 30.4278 11.8079 30.2914 12.9007 30.2309C14.2629 30.1553 15.6331 30.1143 16.3776 30.5448C17.4866 31.1856 18.5448 32.5363 18.9967 33.9051C19.2233 34.5953 19.3253 35.2969 19.0033 35.8555C18.6812 36.414 18.0222 36.6755 17.3111 36.8234C15.8998 37.1175 14.2006 36.8776 13.0916 36.2369C12.3474 35.8082 11.6964 34.6004 11.0821 33.3828C10.5892 32.4069 10.1586 31.3898 9.83517 30.5617L9.83467 30.561ZM7.28133 12.8045C6.82472 12.8998 6.43009 13.1855 6.19681 13.5897C5.96355 13.9939 5.91257 14.4787 6.05707 14.9221C6.05707 14.9221 7.24685 18.5434 8.80918 21.2102C9.61274 22.5804 10.5542 23.6946 11.448 24.2103C13.1666 25.2027 15.794 25.6248 17.9806 25.1697C19.6681 24.818 21.0827 23.954 21.8484 22.6263C22.6142 21.3004 22.6568 19.6423 22.1162 18.0058C21.4179 15.8845 19.7385 13.8193 18.0198 12.8269C17.1261 12.3108 15.6899 12.053 14.1011 12.0416C11.0104 12.0218 7.2808 12.8041 7.2808 12.8041L7.28133 12.8045ZM48.6906 14.9226C48.8369 14.4788 48.786 13.9943 48.5527 13.5902C48.3194 13.186 47.9252 12.8999 47.4682 12.8049C47.4682 12.8049 43.7382 12.023 40.6479 12.0424C39.0573 12.0538 37.6229 12.312 36.7291 12.8277C35.0105 13.8201 33.3312 15.8853 32.6328 18.0066C32.0922 19.6431 32.1351 21.3009 32.9005 22.6271C33.6663 23.9548 35.0791 24.8188 36.7683 25.1705C38.9553 25.6257 41.5824 25.2036 43.301 24.2111C44.1948 23.6951 45.1363 22.5812 45.9398 21.211C47.5022 18.5444 48.6905 14.9229 48.6905 14.9229L48.6906 14.9226ZM44.9148 15.6898C44.5895 16.5194 44.1608 17.5349 43.6679 18.5109C43.0517 19.7286 42.4025 20.9359 41.6584 21.365C40.5494 22.0057 38.8487 22.2456 37.4389 21.9533C36.7274 21.8036 36.0687 21.5425 35.7467 20.984C35.4229 20.4254 35.5267 19.7238 35.7533 19.0354C36.2052 17.6666 37.2633 16.3144 38.3724 15.6736C39.1166 15.2449 40.4853 15.2841 41.8492 15.3597C42.9418 15.4206 44.0362 15.557 44.9153 15.6898L44.9148 15.6898ZM9.83561 15.6898C10.7147 15.5567 11.8088 15.4202 12.9017 15.3597C14.2638 15.2842 15.6341 15.2446 16.3785 15.6737C17.4876 16.3144 18.5457 17.6667 18.9976 19.0354C19.2243 19.7238 19.3262 20.4255 19.0042 20.984C18.6822 21.5426 18.0231 21.8041 17.312 21.9533C15.9008 22.2456 14.2015 22.0058 13.0925 21.3651C12.3483 20.9363 11.6974 19.7285 11.0831 18.511C10.5901 17.535 10.1596 16.5195 9.83611 15.6899L9.83561 15.6898ZM28.6352 2.90011C28.3246 2.55352 27.8793 2.35474 27.4128 2.35474C26.9462 2.35474 26.501 2.55352 26.1903 2.90011C26.1903 2.90011 23.6468 5.74103 22.1204 8.42751C21.3333 9.80948 20.8404 11.1811 20.8404 12.2132C20.8404 14.1981 21.7885 16.6839 23.2771 18.3501C24.4258 19.6367 25.8814 20.4285 27.4127 20.4285C28.9439 20.4285 30.3999 19.6367 31.5483 18.3501C33.0369 16.6839 33.985 14.198 33.985 12.2132C33.985 11.1815 33.4921 9.80938 32.705 8.42751C31.1785 5.74103 28.635 2.90011 28.635 2.90011H28.6352ZM27.4128 6.5545C27.968 7.25134 28.6337 8.13007 29.2315 9.04549C29.979 10.1876 30.6989 11.3539 30.6989 12.2132C30.6989 13.4932 30.0582 15.087 29.097 16.1613C28.614 16.7034 28.0586 17.1424 27.4128 17.1424C26.7669 17.1424 26.2116 16.7037 25.7286 16.1613C24.7673 15.0868 24.1266 13.4928 24.1266 12.2132C24.1266 11.3538 24.8462 10.1872 25.594 9.04549C26.1922 8.13043 26.8575 7.25135 27.4128 6.5545Z" fill="#353F38"/>
</svg>
