<svg width="54" height="54" viewBox="0 0 54 54" fill="none" xmlns="http://www.w3.org/2000/svg">
<path d="M11.7605 11.5708C12.5117 10.7288 12.9089 9.62861 12.8683 8.50042C12.8277 7.37266 12.3531 6.30382 11.5429 5.51791L8.56623 2.54129V2.54087C8.14355 2.11444 8.018 1.47626 8.24775 0.921377C8.47791 0.36689 9.01819 0.00448912 9.6183 0.00198227C12.8244 -0.0624632 15.8579 1.44782 17.7382 4.04487C19.6189 6.64193 20.1077 9.99522 19.0464 13.0208L26.9989 20.9731L23.2563 24.7156L21.9042 23.3631C21.3062 22.7655 20.4952 22.4299 19.6494 22.4303C18.804 22.4303 17.993 22.7663 17.395 23.3643L17.3711 23.3882L13.031 19.0481V19.0477C9.98977 20.1132 6.61926 19.6143 4.01754 17.7132C1.41581 15.812 -0.0836188 12.7525 0.00755132 9.53152C0.0364269 8.94439 0.409718 8.42925 0.959192 8.21917C1.50825 8.0091 2.12973 8.143 2.54358 8.56065L5.64797 11.665C6.46235 12.4793 7.57219 12.9292 8.72387 12.9116C9.87597 12.8937 10.9713 12.4103 11.7605 11.5708ZM53.6945 47.4167C53.0872 49.6915 51.6012 51.6312 49.5628 52.8096C47.5248 53.9876 45.1017 54.307 42.8277 53.6976C40.5535 53.0883 38.6152 51.6002 37.4388 49.561C36.2628 47.5218 35.9455 45.0984 36.557 42.8252C36.5746 42.7599 36.5997 42.6992 36.6185 42.6348L30.6086 36.6249L30.6324 36.6011H30.632C31.2292 36.0023 31.5644 35.1913 31.5644 34.3459C31.5644 33.5005 31.2292 32.6895 30.632 32.0907L29.2803 30.7394L33.0229 26.9974L42.6405 36.6145C44.6635 36.019 46.833 36.1646 48.758 37.0254C50.6831 37.8862 52.2382 39.4058 53.143 41.3106C54.0482 43.2155 54.2435 45.3807 53.6945 47.4167ZM51.3672 43.4487L46.7982 38.8797L40.5569 40.5519L38.8846 46.7932L43.4536 51.3621L49.695 49.6899L51.3672 43.4487ZM53.8208 1.76416C54.0183 1.96169 54.0535 2.26926 53.9057 2.50613L48.6755 10.8891C48.5805 11.041 48.4265 11.146 48.2503 11.1791L45.2159 11.7503L26.2266 30.7392L29.1049 33.6175C29.2983 33.8108 29.4066 34.0728 29.4066 34.346C29.4066 34.6189 29.2983 34.8809 29.1049 35.0742L28.0625 36.1171V36.1166C27.79 36.3748 27.3774 36.4167 27.0585 36.2183C26.445 35.8702 25.7093 35.8095 25.0469 36.0522C24.3848 36.2953 23.8625 36.8172 23.6199 37.4796C23.3767 38.1416 23.4374 38.8773 23.7856 39.4912C23.9844 39.8097 23.9425 40.2223 23.6843 40.4947L12.2961 51.8827C10.946 53.2348 9.11391 53.9952 7.20308 53.9956C5.29269 53.9964 3.46007 53.2377 2.10881 51.8869C0.757967 50.536 -0.000749375 48.703 5.55406e-07 46.7927C0.000837478 44.8819 0.760817 43.0502 2.11298 41.7002L13.5012 30.3123C13.7737 30.0541 14.1863 30.0122 14.5052 30.2106C15.1187 30.5587 15.8544 30.6194 16.5168 30.3767C17.1789 30.1336 17.7012 29.6117 17.9438 28.9493C18.187 28.2873 18.1263 27.5516 17.7781 26.9381C17.5793 26.6193 17.6212 26.2066 17.8794 25.9342L18.9222 24.8914C19.3244 24.4892 19.9764 24.4892 20.3786 24.8914L23.2569 27.7696L42.2463 8.78075L42.8175 5.74639C42.8505 5.57063 42.956 5.41621 43.1079 5.32163L51.4906 0.0910933C51.7275 -0.056629 52.0355 -0.0214794 52.233 0.176045L53.0269 0.969903L53.8208 1.76416ZM3.50901 48.7902L16.5535 35.746L14.4318 33.6242L4.23398 43.8214C3.59453 44.4612 3.17855 45.2902 3.04802 46.1853C2.91745 47.0808 3.07899 47.9944 3.5092 48.7903L3.50901 48.7902ZM20.3728 39.5644L18.2506 37.4423L5.20611 50.4865C6.00207 50.9167 6.91563 51.0782 7.81115 50.9476C8.7063 50.8171 9.53578 50.4011 10.1756 49.7613L20.3728 39.5644Z" fill="#353F38"/>
</svg>
